grf
version=1
nRows=21
nColumns=28
inDegrees=no
endheader
time	ground_force_1_vx	ground_force_1_vy	ground_force_1_vz	ground_force_1_px	ground_force_1_py	ground_force_1_pz	ground_moment_1_mx	ground_moment_1_my	ground_moment_1_mz	ground_force_2_vx	ground_force_2_vy	ground_force_2_vz	ground_force_2_px	ground_force_2_py	ground_force_2_pz	ground_moment_2_mx	ground_moment_2_my	ground_moment_2_mz	ground_force_3_vx	ground_force_3_vy	ground_force_3_vz	ground_force_3_px	ground_force_3_py	ground_force_3_pz	ground_moment_3_mx	ground_moment_3_my	ground_moment_3_mz
      0.00000000	      0.28348239	      0.12721770	      1.74448580	    270.73677918	  -1187.56653346	      1.91669779	      0.09388454	      0.33948771	    186.02098803	      1.17725196	     -1.67168625	      2.27273568	    176.77203121	  -1623.24062997	      0.23492309	      0.02281393	      0.29505119	   -353.55199660	      1.66048468	     -0.69358989	      5.01973584	    466.04050204	   -309.74290787	      0.43832120	     -0.11347019	      0.83354371	    405.88589452
      0.01000000	      0.56665955	     -0.03344324	      1.66487932	    259.59980850	  -1229.63278747	      1.99908938	      0.06009588	      0.21730747	    119.07279276	      1.13681191	     -1.39882552	      2.09792408	    168.32498999	  -1610.70951903	      0.24483566	      0.02296978	      0.29706678	   -355.96722958	      1.50138610	     -0.45683827	      4.94047126	    451.25610019	   -304.58154004	      0.42358845	     -0.08322811	      0.61138759	    297.70916060
      0.02000000	      0.48544281	      0.16816684	      1.74222113	    330.35128995	  -1242.81851142	      1.98744511	      0.07258420	      0.26246541	    143.81691028	      0.66706661	     -1.01140743	      1.92312053	     99.16306712	  -1472.74075484	      0.35551243	      0.01798388	      0.23258447	   -278.69978488	      1.46256455	     -0.53738069	      4.39081333	    445.44368504	   -254.29788984	      0.31869898	     -0.12064492	      0.88624873	    431.55008848
      0.03000000	      0.60604363	      0.32880099	      1.18806830	    244.48618509	  -1308.10317514	      2.14992542	      0.04418300	      0.15976632	     87.54333854	      0.97544947	     -0.23165728	      2.18576892	    118.20896464	  -1575.79859146	      0.27073614	     -0.00264707	     -0.03423440	     41.02217493	      1.46106666	     -0.26012343	      4.39230833	    458.06496198	   -307.68949006	      0.43187456	     -0.10399043	      0.76390613	    371.97656190
      0.04000000	      0.32378810	      0.24934168	      2.05865057	    352.88688079	  -1238.33688108	      1.96789246	      0.05926373	      0.21429842	    117.42399680	      0.62562044	     -0.42724409	      1.48767828	    -97.96200876	  -1368.47576786	      0.42980507	      0.00091512	      0.01183515	    -14.18174136	      1.50172484	     -0.49690859	      4.70219274	    550.82202669	   -301.84009755	      0.44579334	     -0.11004196	      0.80836020	    393.62303539
      0.05000000	      0.36347601	      0.49044318	      1.66410976	    299.46866089	  -1168.54515528	      1.86748289	      0.12194973	      0.44097178	    241.62879366	      0.78012319	     -0.07607332	      1.40265384	    -57.46355946	  -1398.07542378	      0.40771642	     -0.01745701	     -0.22577037	    270.53463330	      1.50193328	     -0.53632201	      4.78389350	    428.15540988	   -264.69121455	      0.33520999	     -0.10413964	      0.76500219	    372.51027741
      0.06000000	      0.44415764	      0.36839242	      0.87302031	     69.56385280	  -1312.56016573	      2.24634247	      0.08435589	      0.30503197	    167.14109496	      0.89466532	      0.43001721	      2.01493646	     59.42485831	  -1396.47840341	      0.41659174	     -0.03428381	     -0.44339035	    531.30286919	      1.50062468	     -0.29848753	      4.86258199	    468.14425442	   -286.89538371	      0.39198873	     -0.09196608	      0.67557613	    328.96513809
      0.07000000	      0.40510636	     -0.07362772	      1.66491173	    241.54125547	  -1285.52194475	      2.11020104	      0.04389793	      0.15873550	     86.97850428	      1.05887461	     15.73009002	    -48.49701178	    491.41428548	  -1927.10312402	      0.00164266	      0.01549575	      0.20040563	   -240.14074178	      1.50284187	     -0.69517323	      4.62788034	    463.13143979	   -292.06768848	      0.40120939	     -0.13729931	      1.00859071	    491.12330738
      0.08000000	      0.24290454	      0.16735571	      1.58520799	    301.43311385	  -1186.92148578	      1.90002818	      0.09485821	      0.34300852	    187.95019813	    -10.58461723	     65.87750827	   -207.23379997	    488.17817118	  -1896.63983486	      0.02685649	      0.04325352	      0.55939514	   -670.30832651	      1.42371770	     -0.61741734	      4.07731686	    513.19590732	   -305.23072283	      0.44223764	     -0.13695820	      1.00608493	    489.90314443
      0.09000000	      0.40451710	      0.08697258	      1.18927356	    236.46889563	  -1244.74133165	      2.03833657	      0.07950090	      0.28747628	    157.52152237	    -44.70137040	     55.82935905	   -379.22877452	    498.99842712	  -1885.77473679	      0.03662199	      0.08678169	      1.12234219	  -1344.87282067	      1.57815579	      0.05614940	      3.68048120	    450.39247775	   -217.62275356	      0.24476493	     -0.13593029	      0.99853398	    486.22628079
      0.10000000	      0.16176619	      0.36993592	      1.82079915	    328.49326425	  -1306.86288368	      2.10526363	      0.08118497	      0.29356592	    160.85831594	    -76.41076279	    -40.85991126	   -532.65496271	    505.90940154	  -1870.64095677	      0.04969760	     -0.05212415	     -0.67411841	    807.77817644	      1.50091467	     -0.29880845	      4.62560717	    487.06960153	   -320.03636692	      0.46533920	     -0.10263562	      0.75395374	    367.13034394
      0.11000000	      0.48447961	      0.40848011	      0.87034772	    240.53583703	  -1423.17752723	      2.36192948	      0.06522435	      0.23585209	    129.23424708	    -84.86188642	   -136.99022711	   -701.91808036	    503.60626008	  -1852.19579195	      0.06494210	     -0.18746023	     -2.42441148	   2905.10783874	      1.89637863	     -0.45453588	      4.93688827	    502.96259846	   -315.13489064	      0.45971640	     -0.13857984	      1.01799736	    495.70378192
      0.12000000	      0.28344860	      0.08617673	      1.50356785	    349.02426006	  -1341.12905270	      2.15743731	      0.03308417	      0.11963278	     65.55231936	    -76.66200980	   -178.08614734	   -887.62003702	    499.44564809	  -1837.84317656	      0.07665137	     -0.19155410	     -2.47735727	   2968.55137534	      1.50282589	     -0.61762425	      3.68151582	    496.19059830	   -177.84114893	      0.17587122	     -0.14410173	      1.05856081	    515.45575627
      0.13000000	      0.68727190	      0.08365304	      0.94828201	    358.51787350	  -1439.93759741	      2.33297118	     -0.01556227	     -0.05627337	    -30.83477409	    -15.25750031	   -229.44845715	  -1062.67593762	    493.33473863	  -1826.13380069	      0.08602892	      0.08583148	      1.11005322	  -1330.14726873	      1.38405057	     -0.61716488	      4.31298474	    490.88218936	   -243.10188279	      0.30840928	     -0.11307788	      0.83066181	    404.48258397
      0.14000000	      0.88979255	     -0.07813769	      1.18540478	    377.56074918	  -1426.47980170	      2.29879983	     -0.01891889	     -0.06841094	    -37.48550928	     25.22758238	   -261.73460294	  -1153.43606018	    490.33896298	  -1817.95916648	      0.09265762	      0.23400754	      3.02640493	  -3626.46059083	      1.46265231	     -0.57696632	      4.46910122	    476.32891078	   -263.14630516	      0.34550478	     -0.13380150	      0.98289608	    478.61155944
      0.15000000	      0.76818505	      0.24518038	      1.81810725	    396.55492982	  -1356.95642440	      2.16233355	      0.02764143	      0.09995175	     54.76817815	     11.33830855	   -275.27708147	  -1196.20925709	    489.94358348	  -1812.09772411	      0.09752368	      0.04564814	      0.59036451	   -707.41810273	      1.46268865	     -0.61549475	      5.02190765	    490.04328391	   -354.28869962	      0.53651250	     -0.11084700	      0.81427393	    396.50266711
      0.16000000	      0.68788180	      0.04339472	      1.97618709	    441.37338523	  -1307.63641419	      2.04970487	      0.04999936	      0.18079834	     99.06775307	     10.90095460	   -281.20802391	  -1226.80193665	    489.91888457	  -1807.51302481	      0.10134818	      0.04061778	      0.52530724	   -629.46170912	      1.42245835	     -0.45830831	      4.46977761	    464.36755957	   -240.07439831	      0.29477944	     -0.09209951	      0.67655628	    329.44241287
      0.17000000	      0.60690419	      0.04179046	      1.65961498	    418.77048496	  -1384.96106638	      2.20222977	      0.03093730	      0.11186968	     61.29855862	     41.67306671	   -272.50554799	  -1259.28229638	    488.57234109	  -1804.86813758	      0.10346854	      0.17973844	      2.32454615	  -2785.44186420	      1.54218568	     -0.69589077	      4.23681012	    418.28890402	   -271.48403475	      0.34640171	     -0.09675080	      0.71072429	    346.08019221
      0.18000000	      0.60672981	      0.12222500	      1.65876631	    441.79522526	  -1406.59699010	      2.23009471	      0.02594601	      0.09382110	     51.40891215	     47.38634596	   -257.96066539	  -1300.06334775	    488.22907245	  -1803.28407061	      0.10476834	      0.09358631	      1.21034592	  -1450.32534154	      1.58201723	     -0.81299655	      5.02238848	    455.76991595	   -297.75001747	      0.41082085	     -0.11023458	      0.80977520	    394.31205394
      0.19000000	      0.89048798	     -0.15780396	      2.21388172	    425.41819941	  -1313.47938855	      2.06842084	      0.03734138	      0.13502693	     73.98748522	     37.52344626	   -241.42905643	  -1332.34260816	    489.09494340	  -1802.78982448	      0.10523668	      0.05805059	      0.75076472	   -899.62140871	      1.42351019	     -0.69499549	      5.02007645	    468.40634180	   -287.83624115	      0.39399418	     -0.10594726	      0.77828082	    378.97617755
      0.20000000	      0.64711319	      0.04140914	      1.26276822	    474.23646280	  -1454.81494713	      2.30171928	      0.00092975	      0.00336200	      1.84219372	     31.68925226	   -218.97446423	  -1341.24532866	    489.84491788	  -1802.86346145	      0.10522362	      0.04267180	      0.55187170	   -661.29318847	      1.73904840	     -0.61479129	      4.62786525	    424.78256684	   -281.37273648	      0.36852492	     -0.11510531	      0.84555521	    411.73477736
